/* XPM */
static char *_424549082d64ba9a3db48411fe7a1c2IslcLm9rpwTaRUB9[] = {
/* columns rows colors chars-per-pixel */
"50 50 185 2 ",
"   c gray3",
".  c black",
"X  c #202020",
"o  c gray12",
"O  c #1E1E1E",
"+  c #C6C6C6",
"@  c #C0C0C0",
"#  c #191919",
"$  c #6F6F6F",
"%  c #FDFDFD",
"&  c #FBFBFB",
"*  c #676767",
"=  c #161616",
"-  c #C8C8C8",
";  c white",
":  c #C1C1C1",
">  c gray7",
",  c gray37",
"<  c #F9F9F9",
"1  c #D7D7D7",
"2  c gray85",
"3  c gray97",
"4  c #565656",
"5  c gray6",
"6  c gray73",
"7  c gray43",
"8  c gray46",
"9  c #FEFEFE",
"0  c #B2B2B2",
"q  c #0C0C0C",
"w  c gray30",
"e  c gray96",
"r  c #D5D5D5",
"t  c #232323",
"y  c gray86",
"u  c gray95",
"i  c #464646",
"p  c #090909",
"a  c #AAAAAA",
"s  c #818181",
"d  c #010101",
"f  c #020202",
"g  c #898989",
"h  c #A2A2A2",
"j  c #070707",
"k  c #3E3E3E",
"l  c #EEEEEE",
"z  c #E1E1E1",
"x  c gray17",
"c  c #313131",
"v  c #E6E6E6",
"b  c #EAEAEA",
"n  c #373737",
"m  c #040404",
"M  c #989898",
"N  c #929292",
"B  c gray1",
"V  c gray2",
"C  c #9A9A9A",
"Z  c gray57",
"A  c gray19",
"S  c gray90",
"D  c gray92",
"F  c #393939",
"G  c #3F3F3F",
"H  c #EFEFEF",
"J  c gray88",
"K  c #2A2A2A",
"L  c #888888",
"P  c gray64",
"I  c gray67",
"U  c #7E7E7E",
"Y  c #252525",
"T  c gray28",
"R  c #4E4E4E",
"E  c gray83",
"W  c gray70",
"Q  c gray99",
"!  c #6D6D6D",
"~  c gray10",
"^  c #CDCDCD",
"/  c #F8F8F8",
"(  c #585858",
")  c #5F5F5F",
"_  c gray78",
"`  c #646464",
"'  c gray98",
"]  c #C3C3C3",
"[  c #131313",
"{  c gray9",
"}  c #C9C8C9",
"|  c gray36",
" . c gray75",
".. c #686868",
"X. c gray44",
"o. c gray72",
"O. c #0E0E0E",
"+. c #535353",
"@. c #F6F6F6",
"#. c #D2D2D2",
"$. c gray11",
"%. c gray84",
"&. c #F4F4F4",
"*. c #4C4C4C",
"=. c gray4",
"-. c #AFAFAF",
";. c #797979",
":. c gray66",
">. c #444444",
",. c gainsboro",
"<. c #272727",
"1. c #2C2C2C",
"2. c #E2E2E2",
"3. c gray93",
"4. c gray24",
"5. c #060606",
"6. c #9F9F9F",
"7. c gray54",
"8. c #979797",
"9. c #353535",
"0. c #E9E9E9",
"q. c #E7E7E7",
"w. c #343434",
"e. c #3A3A3A",
"r. c #E4E4E4",
"t. c #8D8D8D",
"y. c #9D9D9D",
"u. c #A5A5A5",
"i. c gray52",
"p. c gray16",
"a. c #DFDFDF",
"s. c gray26",
"d. c #484848",
"f. c #F3F3F3",
"g. c #7C7C7C",
"h. c #AEAEAE",
"j. c #0B0B0B",
"k. c gray5",
"l. c #B6B6B6",
"z. c #747474",
"x. c #1D1D1D",
"c. c #515151",
"v. c #939393",
"b. c #909090",
"n. c #414141",
"m. c gray80",
"M. c gray42",
"N. c gray",
"B. c #111111",
"V. c DimGray",
"C. c #BBBBBB",
"Z. c #F1F1F1",
"A. c #B7B7B7",
"S. c #656565",
"D. c gray13",
"F. c gray8",
"G. c gray77",
"H. c gray39",
"J. c #C5C5C5",
"K. c gray38",
"L. c #434343",
"P. c gray56",
"I. c #D8D8D8",
"U. c #101010",
"Y. c #5A5A5A",
"T. c #CACACA",
"R. c #1B1B1B",
"E. c #222222",
"W. c #B4B4B4",
"Q. c #626262",
"!. c gray40",
"~. c gray94",
"^. c gray81",
"/. c gray32",
"(. c gray71",
"). c gray25",
"_. c #DADADA",
"`. c gray55",
"'. c gray68",
"]. c gray29",
"[. c #9B9B9B",
"{. c #606060",
"}. c gray14",
"|. c #0F0F10",
" X c #09090A",
/* pixels */
"  . . . . . . . . . . . . . . . . . . . . . . . . . . . . . . . . . . . . . . . . . . . . . . . . . ",
"  . . . . . . . . . . . . . . . . . . . . . . . . . . . . . . . . . . . . . . . . . . . . . . . . . ",
"  . . . . . . . . . . . . . . . . . . . . . . . . . . . . . . . . . . . . . . . . . . . . . . . . . ",
"  . . . . . . . . . . . . . . . . . . . . . . . . . . . . . . . . . . . . . . . . . . . . . . . . . ",
"  . . . . . . . . . . . . . . . . . . . . . . . . . . . . . . . . . . . . . . . . . . . . . . . . . ",
"  . . . . . . . . . . . . . . . . . . . . . . . . . . . . . . . . . . . . . . . . . . . . . . . . . ",
"  . . . . . . . . . . . . . . . . . . . . . . . . . . . . . . . . . . . . . . . . . . . . . . . . . ",
"  . . . . . . . . . . . . . . . . . . . . . . . . . . . . . . . . . . . . . . . . . . . . . . . . . ",
"  . . . . . . . . . . . . . . . . . . . . . . . X o . . . . . . . . . . . . . . . . . . . . . . . . ",
"  . . . . . . . . . . . . . . . . . . . . . . O + @ # . . . . . . . . . . . . . . . . . . . . . . . ",
"  . . . . . . . . . . . . . . . . . . . . . . $ % & * . . . . . . . . . . . . . . . . . . . . . . . ",
"  . . . . . . . . . . . . . . . . . . . . . = - ; ; : > . . . . . . . . . . . . . . . . . . . . . . ",
"  . . . . . . . . . . . . . . . . . . . . . , < 1 2 3 4 . . . . . . . . . . . . . . . . . . . . . . ",
"  . . . . . . . . . . . . . . . . . . . . 5 6 % 7 8 9 0 q . . . . . . . . . . . . . . . . . . . . . ",
"  . . . . . . . . . . . . . . . . . . . . w e r O t y u i . . . . . . . . . . . . . . . . . . . . . ",
"  . . . . . . . . . . . . . . . . . . . p a 9 s d f g ; h j . . . . . . . . . . . . . . . . . . . . ",
"  . . . . . . . . . . . . . . . . . . . k l z x . . c v b n . . . . . . . . . . . . . . . . . . . . ",
"  . . . . . . . . . . . . . . . . . . m M ; N B . . V C ; Z B . . . . . . . . . . . . . . . . . . . ",
"  . . . . . . . . . . . . . . . . . . A S D F . . . . G H J K . . . . . . . . . . . . . . . . . . . ",
"  . . . . . . . . . . . . . . . . . f L ; P j . . . . p I 9 U d . . . . . . . . . . . . . . . . . . ",
"  . . . . . . . . . . . . . . . . . Y y u T . . . . . . R e E X . . . . . . . . . . . . . . . . . . ",
"  . . . . . . . . . . . . . . . . . 8 9 W q . . . . . . 5 6 Q ! . . . . . . . . . . . . . . . . . . ",
"  . . . . . . . . . . . . . . . . ~ ^ / ( . . . . . . . . ) < _ = . . . . . . . . . . . . . . . . . ",
"  . . . . . . . . . . . . . . . . ` ' ] [ . . . . . . . . { } < | . . . . . . . . . . . . . . . . . ",
"  . . . . . . . . . . . . . . . >  .Q ... . . . . . . . . . X.Q o.O.. . . . . . . . . . . . . . . . ",
"  . . . . . . . . . . . . . . . +.@.#.$.. . . . . . . . . . X %.&.*.. . . . . . . . . . . . . . . . ",
"  . . . . . . . . . . . . . . =.-.9 ;.d . . . . . . . . . . d s 9 :.  . . . . . . . . . . . . . . . ",
"  . . . . . . . . . . . . . . >.H ,.<.. . . . . . . . . . . . 1.2.3.4.. . . . . . . . . . . . . . . ",
"  . . . . . . . . . . . . . 5.6.; 7.f . . . . . . . . . . . . B N ; 8.V . . . . . . . . . . . . . . ",
"  . . . . . . . . . . . . . 9.0.q.w.. . . . . . . . . . . . . . e.D r.A . . . . . . . . . . . . . . ",
"  . . . . . . . . . . . . B t.; y.5.. . . . . . . . . . . . . . j u.; i.f . . . . . . . . . . . . . ",
"  . . . . . . . . . . . . p.a.H s.. . . . . . . . . . . . . . . . d.f.2 t . . . . . . . . . . . . . ",
"  . . . . . . . . . . . d g.9 h.j.. . . . . . . f d . . . . . . . k.l.% z.. . . . . . . . . . . . . ",
"  . . . . . . . . . . . x.#.@.c.. . . . . . O.>.v.b.n.k.. . . . . . ( / m.# . . . . . . . . . . . . ",
"  . . . . . . . . . . . M.Q N.B.. . . f t V.C.f.; ; Z.A.S.D.d . . . F.G.' H.. . . . . . . . . . . . ",
"  . . . . . . . . . . F.J.' K.. . O.L.v.y ; 9 %.t.P.I.9 9 I.P.k q . . V.Q N.U.. . . . . . . . . . . ",
"  . . . . . . . . . . Y./ T.R.E...6 u ; H W.Q.o d d X !.A.~.; ~.l.H.O o ^.@./.. . . . . . . . . . . ",
"  . . . . . . . . . k.(.9 :.P.2 ; 9 1 t.4.q . . . . . . k.).b._.; 9 %.`.'.9 h.=.. . . . . . . . . . ",
"  . . . . . . . . . ].u ; ' ; H l.H.o d . . . . . . . . . . d E.V.6 u ; ' 9 l s.. . . . . . . . . . ",
"  . . . . . . . . B [.; & 1 P.G q . . . . . . . . . . . . . . . . k.s.v._.Q ; v.f . . . . . . . . . ",
"  . . . . . . . . d {.:.S.D.f . . . . . . . . . . . . . . . . . . . . f }.M.h., d . . . . . . . . . ",
"  . . . . . . . . . d V . . . . . . . . . . . . . . . . . . . . . . . . . . 5.d . . . . . . . . . . ",
"  . . . . . . . . . . . . . . . . . . . . . . . . . . . . . . . . . . . . . . . . . . . . . . . . . ",
"  . . . . . . . . . . . . . . . . . . . . . . . . . . . . . . . . . . . . . . . . . . . . . . . . . ",
"  . . . . . . . . . . . . . . . . . . . . . . . . . . . . . . . . . . . . . . . . . . . . . . . . . ",
"  . . . . . . . . . . . . . . . . . . . . . . . . . . . . . . . . . . . . . . . . . . . . . . . . . ",
"  . . . . . . . . . . . . . . . . . . . . . . . . . . . . . . . . . . . . . . . . . . . . . . . . . ",
"  . . . . . . . . . . . . . . . . . . . . . . . . . . . . . . . . . . . . . . . . . . . . . . . . . ",
"  . . . . . . . . . . . . . . . . . . . . . . . . . . . . . . . . . . . . . . . . . . . . . . . . . ",
"|. X X X X X X X X X X X X X X X X X X X X X X X X X X X X X X X X X X X X X X X X X X X X X X X X X"
};
