/* XPM */
static char *_213774ad3e84bc3a1663d2b3d6c40a2hcBadh5lwSb5EgPk[] = {
/* columns rows colors chars-per-pixel */
"50 50 183 2 ",
"   c #A7725C",
".  c #AE745C",
"X  c #AF785F",
"o  c #B27057",
"O  c #B27359",
"+  c #B27259",
"@  c #B0715A",
"#  c #B0725A",
"$  c #B1725A",
"%  c #B0735A",
"&  c #B1735A",
"*  c #B1725B",
"=  c #B0735B",
"-  c #B1735B",
";  c #B2725A",
":  c #B3725A",
">  c #B2735A",
",  c #B3735A",
"<  c #B2735B",
"1  c #B17159",
"2  c #B1745A",
"3  c #B0745B",
"4  c #B1745B",
"5  c #B1755B",
"6  c #B2745A",
"7  c #B2745B",
"8  c #B3745B",
"9  c #B2755B",
"0  c #B3755B",
"q  c #B2765B",
"w  c #B3765B",
"e  c #B4755A",
"r  c #B4755B",
"t  c #B0735C",
"y  c #B0745C",
"u  c #B1745C",
"i  c #B0755C",
"p  c #B1755C",
"a  c #B0745D",
"s  c #B0755D",
"d  c #B1755D",
"f  c #B2745C",
"g  c #B3745C",
"h  c #B2755C",
"j  c #B3755C",
"k  c #B2755D",
"l  c #B3755D",
"z  c #B0765C",
"x  c #B1765C",
"c  c #B0765D",
"v  c #B1765D",
"b  c #B0775D",
"n  c #B1775D",
"m  c #B2765C",
"M  c #B3765C",
"N  c #B2765D",
"B  c #B3765D",
"V  c #B2775D",
"C  c #B3775D",
"Z  c #B0755E",
"A  c #B1755E",
"S  c #B0765E",
"D  c #B1765E",
"F  c #B0775E",
"G  c #B1775E",
"H  c #B0765F",
"J  c #B1765F",
"K  c #B0775F",
"L  c #B1775F",
"P  c #B2765E",
"I  c #B3765E",
"U  c #B2775E",
"Y  c #B3775E",
"T  c #B2775F",
"R  c #B3775F",
"E  c #B4755D",
"W  c #B4765C",
"Q  c #B4765D",
"!  c #B5765D",
"~  c #B4775D",
"^  c #B5775D",
"/  c #B6765D",
"(  c #B6775D",
")  c #B4765E",
"_  c #B5765E",
"`  c #B4775E",
"'  c #B5775E",
"]  c #B4775F",
"[  c #B5775F",
"{  c #B3765E",
"}  c #B0785E",
"|  c #B1785E",
" . c #B0785F",
".. c #B1785F",
"X. c #B0795F",
"o. c #B1795F",
"O. c #B2785E",
"+. c #B3785E",
"@. c #B2785F",
"#. c #B3785F",
"$. c #B4785E",
"%. c #B4785F",
"&. c #B5785F",
"*. c #B5785F",
"=. c #AD7660",
"-. c #AE7660",
";. c #AF7760",
":. c #AD7760",
">. c #AB7861",
",. c #AD7860",
"<. c #AD7861",
"1. c #AE7860",
"2. c #AF7860",
"3. c #AF7961",
"4. c #AF7A62",
"5. c #AC7861",
"6. c #B07760",
"7. c #B17760",
"8. c #B27760",
"9. c #B37760",
"0. c #B07760",
"q. c #B07860",
"w. c #B17860",
"e. c #B07960",
"r. c #B17960",
"t. c #B07861",
"y. c #B17861",
"u. c #B07961",
"i. c #B17961",
"p. c #B27860",
"a. c #B37860",
"s. c #B27960",
"d. c #B37960",
"f. c #B27861",
"g. c #B37861",
"h. c #B27961",
"j. c #B37961",
"k. c #B07A61",
"l. c #B17A61",
"z. c #B27A60",
"x. c #B27A61",
"c. c #B37A61",
"v. c #B27B61",
"b. c #B07962",
"n. c #B17962",
"m. c #B37962",
"M. c #B07A62",
"N. c #B17A62",
"B. c #B07B62",
"V. c #B17B62",
"C. c #B07A63",
"Z. c #B07B63",
"A. c #B17B63",
"S. c #B27A62",
"D. c #B37A62",
"F. c #B27B62",
"G. c #B37B62",
"H. c #B27B63",
"J. c #B47860",
"K. c #B57860",
"L. c #B47960",
"P. c #B57960",
"I. c #B47961",
"U. c #B47A61",
"Y. c #B57A61",
"T. c #B47962",
"R. c #B47A62",
"E. c #B57A62",
"W. c #B47B62",
"Q. c #B57B62",
"!. c #B47B63",
"~. c #B07C63",
"^. c #B17C63",
"/. c #B37C62",
"(. c #B47C63",
"). c #B57C63",
"_. c #B07C64",
"`. c #B47C64",
"'. c #B57C64",
"]. c #B47D64",
"[. c #B57D64",
"{. c #B57D65",
"}. c #B17861",
/* pixels */
"                  . @ @ @ @ @ = = = = = = = = = = = = = = 3 W W W W y y y y . . . . . . . t t y y y ",
"                  . . @ @ @ . . = = = = = = = = = = = = = 3 y W W W y y y y . . . . . . . = t t y y ",
"                . . . . @ @ . . = = = = = = = = = = = = 3 y y W W W y y y y . . . . . . . = = = = = ",
"                . . . . . . = = = = = = = = = = = = = = y y y y y y y y y y y . . . . . = = = = = = ",
"        . . . . . . . . . . = = = = = = = = = = = = 3 y y y y y y y 3 3 3 = = = = . . . = = = = = = ",
". . . . . . . . . . . . . = = = = = = = = = = = 3 y y y y y y y y 3 3 3 = = = = = = = = = = = = = = ",
". . . . . . . . . . . . . y = = = = = = 3 3 y y y y y y y y y y 3 3 3 = = = = = = = = = = = = = = = ",
". . . . . . . . . . . . . y = = = = 3 3 3 y y y y y y y y y y y 3 3 = = = o o o o = = o = = = = = = ",
"y y y y . . . . . . . . . = = = 3 = = 3 y y y y y y y y y y y y 3 = = = o o o o o o o o = = , , = , ",
"y y y y . . . . . . . . . = = = = = = 3 3 y y y y y y y y . . . 3 = = = o o o o o o o = = , , , = = ",
"y y y y . . . . . . . . . . . = = = = = y y y y . . . . . . . . = = o = o o o o o o = = = = , , , , ",
"y y y y . . . . . . . . . . . . . . . . 3 y y y . . . . . . . . = = o o o o o o o o = = = = = = , , ",
"y y p.p.y . . . . . . . . . . . . . . . . y y y . . . . . . . . = = = o o o o = o = = = 3 3 = = 3 3 ",
"..y p.p.y y . . . . . . . . . . . . . . y y y y y . . . . . . . = = o o o = = = = = = = 3 3 3 3 3 3 ",
"y p.p...y y y y y . . . . . . . . . . . y y y y y 6.. . . . . . = = o o o o o = = = = 3 3 3 3 3 3 3 ",
"p.......y y y y y 3 = . . . . . . . . y y y y y y 6.. . . . . . = = = = = = = = = = 3 3 3 3 y y y y ",
"........y y y y y 3 3 . . . . . . . . y y y y y y y p.y . . . . = = = = = , , = = 3 3 3 y y y y y y ",
"......%.y y W W y 3 3 = . . . . . . . y y y W y y y y y . . . . = 3 = = , W W 3 3 3 y y y y y y y y ",
"W W y W y W W W y 3 3 = . . . . . . y y y y W W W y y y . . . y 3 = 3 3 3 3 y y y y y y y y y y y y ",
"W W y y y y W W 3 3 3 3 . . . y . . y ..y W W W W y y y y y y y 3 3 y y y y y y y y y y y y y y y y ",
"W y y W W W W 3 3 3 3 3 3 y . y y ....y y W W W W y y y y y y y y y y W y y y y y y y y y y ..y y ..",
"W y y y y y 3 3 3 3 3 3 3 y y y y y y y y W W W W y y y y y y y y y y W y y y y y y ......%.y y W %.",
"y y y y y y 3 3 3 3 3 3 y y y y y ..y y W W W W W y y y y y y y y ......y y y y y ......%.%.%.%.%.%.",
"..y y y y y y 3 3 3 y y y y y y ........W W W W W y y y y y y ........p.....p.p.p.......%.%.%.%.%.%.",
"p...y y y y y y y y y y y y ............y y 3 3 y y y y y ..y ..y y y p.p.p.p.p.p.p.p.p.p.p.p.Y.Y.Y.",
"....y y y y y y y y y y W W %.Y.p.p.p.....y y y y y ............y y ..p.p.p.p.p.p.p.p.p.p.p.p.p.p.p.",
"........y y y y y y W W %.%.Y.Y.p.p.p.p...........y y . . . X X . . . . X 3.p.p.p.p././././.p.p./.p.",
"..........y y W y W W %.Y.Y.Y.Y././.p.p.............. . . . . X X X . . 3.3.p.p.p.p././././.p.p./.p.",
"y y y y y y W J.W %.Y.Y.Y.Y.(.(./.p.p.p.p.........X X X X X X X X X X X X X p.p.p.p.p.p.p.p.p.p.p.p.",
"y y y y W %.Y.Y.Y.Y.Y.Y.Y.(.(.(.(./.p.p.p.p.........X X X X ..........X X X ..p.p.p.p.p.p.p.p.p.p.3.",
"y y y y p.Y.Y.Y.Y.Y.Y.Y.(.(.(.(.(.(.p.p.p.p.p.p.................p.p.................p.p.p.p.3.3.3.3.",
"W W W W Y.Y.Y.(.(.(.(.(.(.(.(.(.(.(.(.p.p.p.p.p.p.............p.p.p.p...................X 3.3.3.3.3.",
"W W W %.%.Y.Y.(.(.[.[.[.[.[.[.(.[.Y.(.p.p.p.p.p.p.p.p.p.p.p.p.p.p.p.p...p.p.....y y y y X 3.3.X 3.3.",
"W W W %.%.Y.Y.(.[.[.[.[.[.[.[.(.!.Y.Y.p.p.p./.p.p.p.p.p...p.p.p.p.p.p.p.p.p...y y y y y y ..X X . y ",
"W W %.Y.Y.Y.Y.(.(.[.[.[.[.[.[.(.Y.Y.Y./.p./.p./.p.p.3.p.p.p.p.p.p.p.p.p.p.p.y y y y y y y y ......y ",
"W J.Y.Y.Y.Y.Y.Y.(.[.[.[.[.[.(.Y.Y.Y.p./.p.p./._.p.p.3.p.p.p.p.p.p.p.p.p.p.p.y y y y y y y y ....%.%.",
"Y.Y.Y.Y.Y.Y.Y.Y.!.[.[.[.[.[.Y.Y.Y.Y.p.p.p./._.p.p.p.3.p.p.p.p.p.p.p.p.p.p...y y y W W W W W W W %.%.",
"Y.Y.Y.Y.Y.Y.Y.Y.Y.!.[.[.[.[.Y.Y.Y.p.p.p.p./._.p.3.p.p.p.p.p.p.p.p.p.p.p.....y y y W W W W W W W %.%.",
"Y.Y.Y.Y.Y.Y.Y.Y.Y.Y.Y.Y.Y.Y.Y.Y.p.p.p.p.p.p._.p.p.p.p.p.p.p.p.p.p.p.p.p.p.y y y W W W W W %.W W W W ",
"Y.Y.Y.Y.J.Y.Y.p.Y.Y.Y.Y.Y.Y.p.p.p.p.p.p.p.p._._.p.p.p.6.6.p.p.p.p.p.p.p.p.....W W W W W W %.W W W W ",
"W W W %.Y.Y.p.p.p.p.Y.Y.p.Y.Y.p.p.p.p.p.p.p././.p.p.p.y Y.Y.Y.p.p.p.p.p.p.p...%.Y.W W W W W W W W W ",
"J.W W W J.Y.Y.p...p.p.p.p.Y.p.p.p.p.p.p.p.p./.p.Y.Y.%.W %.%.Y.......p.p.p.p.p...p.p.y y y y y y y y ",
"J.J.W W J.W J.6.......p.p.p.p.6.p.p.p.p.p.p.p.Y.Y.%.W W %.%.y y ......p.p.p.p.p.p.p.p.6.p...y ..y y ",
"W W W W W W W W y y y y y 6.6.6.6.p.p.p.p.p.p.Y.Y.%.W %.%...y y y ....p.p.p.p.p.p.p.p.p.p.p.p...y y ",
"W W W W W W W W y y y y y y 6.6.6.p.p.p.p.p.Y.Y.p.%.W W y y y y y ....p.p.p.p.p.p.3.3.3.p.p.6.y y y ",
"J.W W W W W W W y y y . . . ;.;.6.6.p.p.p.p.p.Y.p...y y y y y y y 6.p.......p.3.3.3.3.3.3.p.p.p.p.p.",
"J.J.W W W W W W y y y . ;.;.;.;.6.6.p.p.p.p.p.p.p.y y y ..y p.p.p.6.6.y . . . 3.3.>.>.>.3.3.3.p.3.p.",
"Y.J.W W W W W W y y . ;.;.;.;.;.;.6.p.p.p.p.p.p.p.y y y ..p.p.p.p.6.6.y y . . ;.>.>.>.>.3.3.3.3.3.3.",
"Y.Y.W W W W W W y y . ;.;.;.;.;.;.6.p.p.p.p.p.p.p.y y y y 6.6.p.p.6.6.y y . . ;.>.>.>.>.>.3.3.3.p.p.",
"Y.Y.W W W W W W y y . ;.. ;.;.. . 6.p.p.p.p.p.p.p.y y y y 6.6.6.;.;.;.y . . . ;.>.>.>.>.>.3.3.3.3.p."
};
